<svg xmlns="http://www.w3.org/2000/svg" xmlns:xlink="http://www.w3.org/1999/xlink" width="500" zoomAndPan="magnify" viewBox="0 0 375 374.999991" height="500" preserveAspectRatio="xMidYMid meet" version="1.0"><defs><g/><clipPath id="c5b489c094"><path d="M 53 127 L 125 127 L 125 172 L 53 172 Z M 53 127 " clip-rule="nonzero"/></clipPath><clipPath id="f594d43ba5"><path d="M 58.496094 116.632812 L 129.910156 139.542969 L 118.683594 174.539062 L 47.269531 151.628906 Z M 58.496094 116.632812 " clip-rule="nonzero"/></clipPath><clipPath id="6d3b958a3d"><path d="M 58.496094 116.632812 L 129.910156 139.542969 L 118.683594 174.539062 L 47.269531 151.628906 Z M 58.496094 116.632812 " clip-rule="nonzero"/></clipPath></defs><g fill="#178ca4" fill-opacity="1"><g transform="translate(14.398147, 220.83643)"><g><path d="M 46.84375 -10.921875 C 46.96875 -9.023438 47.03125 -7.570312 47.03125 -6.5625 C 47.03125 -3.519531 46.648438 -0.476562 45.890625 2.5625 C 43.109375 2.5625 38.925781 2.625 33.34375 2.75 L 21 2.84375 C 15.363281 2.84375 10.101562 2.65625 5.21875 2.28125 L 5.21875 0.46875 L 3.328125 0.375 C 3.328125 -2.914062 3.296875 -6.742188 3.234375 -11.109375 C 3.171875 -15.484375 3.109375 -18.8125 3.046875 -21.09375 C 2.847656 -27.9375 2.75 -34.8125 2.75 -41.71875 C 2.75 -49.695312 3.003906 -57.929688 3.515625 -66.421875 C 8.453125 -66.671875 14.164062 -66.875 20.65625 -67.03125 C 27.15625 -67.1875 32.523438 -67.265625 36.765625 -67.265625 C 41.773438 -67.265625 44.40625 -66.882812 44.65625 -66.125 C 44.65625 -65.6875 44.765625 -65.351562 44.984375 -65.125 C 45.210938 -64.90625 45.515625 -64.734375 45.890625 -64.609375 C 46.273438 -64.484375 46.5 -64.359375 46.5625 -64.234375 L 46.5625 -64.328125 C 46.8125 -62.867188 46.9375 -61.191406 46.9375 -59.296875 C 46.9375 -58.273438 46.875 -56.753906 46.75 -54.734375 C 46.625 -52.578125 46.5625 -50.925781 46.5625 -49.78125 C 43.332031 -49.019531 39.242188 -48.640625 34.296875 -48.640625 L 30.875 -48.640625 L 27.171875 -48.75 C 25.210938 -48.75 23.25 -48.648438 21.28125 -48.453125 C 21.28125 -47.503906 21.21875 -46.269531 21.09375 -44.75 L 21 -41.609375 L 21 -40.765625 L 22.703125 -40.671875 L 26.421875 -40.765625 C 26.734375 -40.765625 28.316406 -40.671875 31.171875 -40.484375 C 31.234375 -40.285156 31.296875 -39.976562 31.359375 -39.5625 C 31.421875 -39.15625 31.5625 -38.890625 31.78125 -38.765625 C 32 -38.640625 32.425781 -38.578125 33.0625 -38.578125 C 33.382812 -36.929688 33.546875 -35 33.546875 -32.78125 C 33.546875 -30.8125 33.515625 -29.320312 33.453125 -28.3125 L 33.34375 -23.75 C 31.445312 -23.25 29.007812 -23 26.03125 -23 C 23.6875 -23 22.265625 -22.929688 21.765625 -22.796875 C 21.566406 -21.847656 21.46875 -20.394531 21.46875 -18.4375 C 21.46875 -16.53125 21.5 -15.164062 21.5625 -14.34375 C 29.164062 -13.96875 35.1875 -13.78125 39.625 -13.78125 C 41.144531 -13.78125 42.914062 -13.84375 44.9375 -13.96875 L 44.9375 -12.828125 L 45.03125 -11.96875 C 45.789062 -11.96875 46.394531 -12 46.84375 -12.0625 Z M 44 -12.921875 C 43.039062 -12.859375 41.675781 -12.828125 39.90625 -12.828125 C 38.320312 -12.828125 36.484375 -12.859375 34.390625 -12.921875 C 32.304688 -12.984375 30.691406 -13.046875 29.546875 -13.109375 C 26.128906 -13.296875 22.644531 -13.390625 19.09375 -13.390625 L 19 -13.5 C 18.75 -15.082031 18.625 -17.359375 18.625 -20.328125 C 18.625 -22.359375 18.75 -24.039062 19 -25.375 C 19.257812 -25.5625 19.832031 -25.6875 20.71875 -25.75 C 21.601562 -25.8125 22.582031 -25.84375 23.65625 -25.84375 C 26.945312 -25.84375 29.226562 -26.035156 30.5 -26.421875 L 30.59375 -34.6875 C 30.59375 -36.894531 30.5 -38.539062 30.3125 -39.625 L 30.3125 -39.71875 C 28.601562 -39.71875 27.304688 -39.75 26.421875 -39.8125 C 22.929688 -39.8125 20.332031 -39.875 18.625 -40 L 18.53125 -40.09375 C 18.269531 -41.039062 18.140625 -42.242188 18.140625 -43.703125 C 18.140625 -44.585938 18.207031 -45.851562 18.34375 -47.5 L 18.4375 -51.21875 L 18.8125 -51.3125 C 19.945312 -51.4375 21.179688 -51.5 22.515625 -51.5 C 23.847656 -51.5 24.734375 -51.5 25.171875 -51.5 L 32.6875 -51.5 C 37.3125 -51.5 40.984375 -51.816406 43.703125 -52.453125 L 43.703125 -52.546875 L 43.796875 -57.015625 C 43.929688 -59.035156 44 -60.550781 44 -61.5625 C 44 -63.019531 43.898438 -64.507812 43.703125 -66.03125 C 43.703125 -66.226562 41.390625 -66.328125 36.765625 -66.328125 C 26.890625 -66.328125 16.09375 -66.039062 4.375 -65.46875 C 3.988281 -59.320312 3.796875 -51.71875 3.796875 -42.65625 C 3.796875 -37.96875 3.859375 -31.003906 3.984375 -21.765625 C 4.179688 -14.734375 4.28125 -7.632812 4.28125 -0.46875 C 8.007812 -0.15625 12.597656 0 18.046875 0 C 20.773438 0 24.988281 -0.0625 30.6875 -0.1875 L 43.234375 -0.28125 C 43.867188 -2.75 44.1875 -5.441406 44.1875 -8.359375 C 44.1875 -9.367188 44.125 -10.828125 44 -12.734375 Z M 44 -12.921875 "/></g></g></g><g fill="#178ca4" fill-opacity="1"><g transform="translate(60.096107, 220.83643)"><g><path d="M 40 -57.203125 C 42.726562 -53.078125 44.691406 -48.328125 45.890625 -42.953125 L 45.796875 -43.046875 C 46.304688 -41.523438 46.625 -39.398438 46.75 -36.671875 L 46.46875 -31.265625 C 46.332031 -25.878906 45.984375 -21.789062 45.421875 -19 C 44.085938 -15.132812 42.359375 -11.492188 40.234375 -8.078125 C 38.117188 -4.660156 35.632812 -1.175781 32.78125 2.375 C 26.695312 2.5625 20.203125 2.65625 13.296875 2.65625 C 11.648438 2.71875 9.335938 2.75 6.359375 2.75 L 6.078125 0.765625 L 4.46875 0.859375 C 3.320312 -7.441406 2.75 -18.050781 2.75 -30.96875 C 2.75 -36.351562 2.78125 -40.410156 2.84375 -43.140625 L 2.953125 -56.0625 C 2.953125 -60.175781 2.914062 -63.25 2.84375 -65.28125 C 2.84375 -65.40625 2.878906 -65.5 2.953125 -65.5625 C 3.078125 -65.875 3.296875 -66.191406 3.609375 -66.515625 C 5.253906 -66.953125 6.914062 -67.25 8.59375 -67.40625 C 10.269531 -67.570312 12.25 -67.65625 14.53125 -67.65625 C 16.5 -67.65625 17.988281 -67.625 19 -67.5625 L 23.375 -67.46875 C 25.019531 -67.46875 26.253906 -67.5 27.078125 -67.5625 C 29.609375 -66.800781 32.109375 -65.421875 34.578125 -63.421875 C 37.054688 -61.429688 38.894531 -59.359375 40.09375 -57.203125 Z M 24.234375 -66.515625 C 22.203125 -66.515625 20.648438 -66.546875 19.578125 -66.609375 L 14.828125 -66.703125 C 10.453125 -66.703125 6.867188 -66.351562 4.078125 -65.65625 L 3.796875 -65.28125 C 3.859375 -63.25 3.890625 -60.207031 3.890625 -56.15625 L 3.796875 -43.234375 C 3.734375 -40.441406 3.703125 -36.226562 3.703125 -30.59375 C 3.703125 -24.257812 3.8125 -18.6875 4.03125 -13.875 C 4.257812 -9.0625 4.691406 -4.46875 5.328125 -0.09375 L 5.421875 -0.1875 C 16.503906 -0.1875 24.832031 -0.28125 30.40625 -0.46875 C 33.320312 -4.082031 35.773438 -7.472656 37.765625 -10.640625 C 39.765625 -13.804688 41.332031 -17.132812 42.46875 -20.625 L 42.5625 -20.8125 C 43.195312 -24.164062 43.578125 -28.691406 43.703125 -34.390625 L 43.890625 -38.671875 C 43.703125 -42.085938 43.035156 -45.535156 41.890625 -49.015625 C 40.753906 -52.503906 39.238281 -55.707031 37.34375 -58.625 C 36.195312 -60.519531 34.691406 -62.195312 32.828125 -63.65625 C 30.960938 -65.113281 29.015625 -66.097656 26.984375 -66.609375 Z M 23.9375 -20.515625 C 22.863281 -20.328125 21.757812 -20.234375 20.625 -20.234375 C 19.164062 -20.234375 18.117188 -20.519531 17.484375 -21.09375 C 17.359375 -24.007812 17.296875 -26.257812 17.296875 -27.84375 L 17.390625 -34.203125 C 17.453125 -35.535156 17.484375 -37.4375 17.484375 -39.90625 C 17.484375 -41.363281 17.421875 -43.296875 17.296875 -45.703125 L 17.296875 -46.078125 L 17.578125 -46.078125 C 18.710938 -46.273438 19.914062 -46.375 21.1875 -46.375 C 24.988281 -46.375 27.617188 -44.992188 29.078125 -42.234375 C 30.535156 -39.472656 31.265625 -36.257812 31.265625 -32.59375 C 31.265625 -29.738281 30.375 -26.921875 28.59375 -24.140625 C 27.96875 -23.179688 27.238281 -22.335938 26.40625 -21.609375 C 25.582031 -20.878906 24.828125 -20.515625 24.140625 -20.515625 Z M 27.84375 -24.609375 C 29.488281 -27.078125 30.3125 -29.738281 30.3125 -32.59375 C 30.3125 -33.988281 30.054688 -35.679688 29.546875 -37.671875 C 29.046875 -39.671875 28.347656 -41.398438 27.453125 -42.859375 L 26.515625 -43.328125 C 24.992188 -43.453125 23.851562 -43.515625 23.09375 -43.515625 C 22.519531 -43.515625 21.535156 -43.453125 20.140625 -43.328125 C 20.265625 -40.921875 20.328125 -38.925781 20.328125 -37.34375 L 20.234375 -30.03125 C 20.109375 -26.726562 20.046875 -24.285156 20.046875 -22.703125 L 20.140625 -21.1875 L 20.625 -21.1875 C 21.3125 -21.1875 21.972656 -21.234375 22.609375 -21.328125 C 23.242188 -21.421875 23.71875 -21.46875 24.03125 -21.46875 L 24.234375 -21.375 C 24.421875 -21.375 24.769531 -21.566406 25.28125 -21.953125 L 25.171875 -21.953125 C 26.128906 -22.515625 27.019531 -23.429688 27.84375 -24.703125 Z M 27.84375 -24.609375 "/></g></g></g><g fill="#178ca4" fill-opacity="1"><g transform="translate(105.889084, 220.83643)"><g><path d="M 47.40625 -61.671875 C 47.726562 -54.890625 47.890625 -48.773438 47.890625 -43.328125 C 47.890625 -32.367188 47.347656 -22.046875 46.265625 -12.359375 C 45.640625 -7.410156 43.550781 -3.382812 40 -0.28125 C 36.457031 2.820312 32.054688 4.375 26.796875 4.375 C 22.804688 4.375 18.972656 3.628906 15.296875 2.140625 C 11.617188 0.648438 8.609375 -1.484375 6.265625 -4.265625 C 3.921875 -7.054688 2.6875 -10.289062 2.5625 -13.96875 C 2.5625 -18.53125 2.625 -25.367188 2.75 -34.484375 C 2.945312 -41.515625 3.046875 -48.644531 3.046875 -55.875 C 3.046875 -60.363281 3.015625 -63.59375 2.953125 -65.5625 C 4.535156 -65.5625 5.738281 -65.59375 6.5625 -65.65625 L 10.546875 -65.75 C 13.523438 -65.75 16.09375 -65.429688 18.25 -64.796875 L 18.140625 -63.375 C 18.335938 -63.3125 18.65625 -63.25 19.09375 -63.1875 C 19.539062 -63.125 19.890625 -63.03125 20.140625 -62.90625 C 19.890625 -58.15625 19.765625 -52.515625 19.765625 -45.984375 C 19.765625 -36.867188 20.175781 -26.734375 21 -15.578125 L 21 -15.765625 C 21.125 -15.078125 21.421875 -14.617188 21.890625 -14.390625 C 22.367188 -14.171875 22.988281 -14.0625 23.75 -14.0625 C 24.957031 -14.0625 26.035156 -14.410156 26.984375 -15.109375 C 27.929688 -15.804688 28.566406 -16.785156 28.890625 -18.046875 L 28.890625 -17.859375 C 29.203125 -25.078125 29.359375 -33.789062 29.359375 -44 C 29.484375 -53.238281 29.609375 -60.140625 29.734375 -64.703125 C 33.160156 -65.210938 36.425781 -65.46875 39.53125 -65.46875 C 40.851562 -65.46875 41.957031 -65.382812 42.84375 -65.21875 C 43.738281 -65.0625 44.5 -64.765625 45.125 -64.328125 L 45.515625 -63.5625 L 45.515625 -63.09375 C 46.210938 -62.90625 46.71875 -62.679688 47.03125 -62.421875 Z M 39.34375 -64.515625 C 37 -64.515625 34.113281 -64.289062 30.6875 -63.84375 C 30.625 -61.1875 30.5625 -57.972656 30.5 -54.203125 C 30.4375 -50.429688 30.40625 -47.535156 30.40625 -45.515625 C 30.28125 -33.160156 30.085938 -23.941406 29.828125 -17.859375 C 29.515625 -16.398438 28.769531 -15.242188 27.59375 -14.390625 C 26.425781 -13.535156 25.144531 -13.109375 23.75 -13.109375 C 22.488281 -13.109375 21.332031 -13.472656 20.28125 -14.203125 C 19.238281 -14.929688 18.523438 -15.992188 18.140625 -17.390625 C 17.316406 -27.265625 16.90625 -37.429688 16.90625 -47.890625 C 16.90625 -53.910156 17.035156 -59.296875 17.296875 -64.046875 L 17.296875 -64.140625 C 15.585938 -64.578125 13.460938 -64.796875 10.921875 -64.796875 L 6.9375 -64.703125 C 6.238281 -64.640625 5.222656 -64.609375 3.890625 -64.609375 L 3.796875 -64.609375 L 3.890625 -64.515625 L 3.984375 -55.578125 C 3.984375 -48.609375 3.890625 -41.609375 3.703125 -34.578125 C 3.578125 -25.460938 3.515625 -18.59375 3.515625 -13.96875 C 3.578125 -10.613281 4.648438 -7.765625 6.734375 -5.421875 C 8.828125 -3.078125 11.488281 -1.332031 14.71875 -0.1875 C 17.957031 0.945312 21.347656 1.515625 24.890625 1.515625 C 30.210938 1.515625 34.488281 0.09375 37.71875 -2.75 C 40.945312 -5.601562 42.847656 -9.46875 43.421875 -14.34375 C 44.492188 -23.28125 45.03125 -33.578125 45.03125 -45.234375 C 45.03125 -50.679688 44.875 -56.789062 44.5625 -63.5625 C 43.550781 -64.195312 41.8125 -64.515625 39.34375 -64.515625 Z M 39.34375 -64.515625 "/></g></g></g><g fill="#178ca4" fill-opacity="1"><g transform="translate(153.867201, 220.83643)"><g><path d="M 46.171875 3.046875 C 44.398438 2.785156 42.375 2.65625 40.09375 2.65625 L 35.53125 2.75 C 34.644531 2.8125 33.378906 2.84375 31.734375 2.84375 C 31.671875 2.40625 31.640625 1.742188 31.640625 0.859375 L 29.828125 0.953125 C 29.640625 -2.472656 29.546875 -8.144531 29.546875 -16.0625 L 29.359375 -27.75 C 29.171875 -27.238281 28.804688 -26.222656 28.265625 -24.703125 C 27.722656 -23.179688 27.195312 -22.054688 26.6875 -21.328125 C 26.1875 -20.597656 25.71875 -20.234375 25.28125 -20.234375 C 24.769531 -20.234375 24.132812 -20.867188 23.375 -22.140625 C 22.425781 -22.203125 21.285156 -23.816406 19.953125 -26.984375 C 19.890625 -25.460938 19.859375 -23.242188 19.859375 -20.328125 C 19.859375 -14.753906 20.175781 -7.15625 20.8125 2.46875 C 18.34375 2.851562 15.710938 3.046875 12.921875 3.046875 L 9.875 3.140625 C 8.351562 3.140625 7.164062 2.992188 6.3125 2.703125 C 5.457031 2.421875 5.03125 1.835938 5.03125 0.953125 L 4.5625 0.953125 C 4.050781 0.953125 3.609375 0.570312 3.234375 -0.1875 C 3.109375 -0.570312 3.03125 -2.078125 3 -4.703125 C 2.96875 -7.328125 2.953125 -10.984375 2.953125 -15.671875 C 2.953125 -32.835938 3.046875 -49.5625 3.234375 -65.84375 C 4.941406 -66.414062 6.875 -66.703125 9.03125 -66.703125 C 10.226562 -66.703125 11.144531 -66.671875 11.78125 -66.609375 L 14.828125 -66.515625 C 15.960938 -66.515625 16.878906 -66.546875 17.578125 -66.609375 L 18.90625 -64.609375 L 19.484375 -64.703125 C 20.679688 -63.304688 22.007812 -60.457031 23.46875 -56.15625 L 24.328125 -53.78125 C 24.765625 -55.875 25.472656 -58.265625 26.453125 -60.953125 C 27.441406 -63.640625 28.378906 -65.617188 29.265625 -66.890625 C 30.148438 -66.765625 30.910156 -66.703125 31.546875 -66.703125 C 32.679688 -66.703125 34.769531 -66.765625 37.8125 -66.890625 C 40.28125 -67.078125 42.5625 -67.171875 44.65625 -67.171875 L 44.5625 -65.28125 L 46.5625 -65.28125 C 46.5 -63.695312 46.46875 -60.972656 46.46875 -57.109375 L 46.5625 -47.125 C 46.625 -44.90625 46.65625 -41.550781 46.65625 -37.0625 L 46.65625 -33.546875 C 46.65625 -31.203125 46.59375 -29.425781 46.46875 -28.21875 L 46.46875 -28.3125 Z M 43.609375 -30.21875 C 43.734375 -31.476562 43.796875 -33.347656 43.796875 -35.828125 L 43.796875 -39.53125 C 43.796875 -43.832031 43.765625 -47.0625 43.703125 -49.21875 L 43.609375 -59 C 43.609375 -62.226562 43.640625 -64.632812 43.703125 -66.21875 C 41.742188 -66.21875 39.53125 -66.125 37.0625 -65.9375 L 31.171875 -65.75 C 30.273438 -65.75 29.765625 -65.78125 29.640625 -65.84375 C 29.078125 -65.082031 28.445312 -63.703125 27.75 -61.703125 C 27.050781 -59.710938 26.414062 -57.769531 25.84375 -55.875 C 25.46875 -54.601562 25.101562 -53.457031 24.75 -52.4375 C 24.40625 -51.425781 24.164062 -50.953125 24.03125 -51.015625 C 23.65625 -51.015625 23.210938 -51.582031 22.703125 -52.71875 C 22.203125 -53.863281 21.441406 -55.738281 20.421875 -58.34375 C 19.859375 -59.925781 19.289062 -61.425781 18.71875 -62.84375 C 18.144531 -64.269531 17.640625 -65.207031 17.203125 -65.65625 L 17.109375 -65.65625 C 16.410156 -65.59375 15.300781 -65.5625 13.78125 -65.5625 L 10.359375 -65.65625 L 8.84375 -65.65625 C 6.75 -65.65625 5.195312 -65.5 4.1875 -65.1875 C 3.988281 -48.96875 3.890625 -32.460938 3.890625 -15.671875 C 3.890625 -8.960938 3.9375 -4.671875 4.03125 -2.796875 C 4.132812 -0.929688 4.3125 0 4.5625 0 L 11.6875 0.09375 C 14.09375 0.09375 16.148438 -0.03125 17.859375 -0.28125 C 17.285156 -8.957031 17 -16.273438 17 -22.234375 C 17 -26.984375 17.191406 -31.671875 17.578125 -36.296875 L 17.859375 -35.34375 L 18.625 -33.34375 C 19.632812 -30.4375 20.550781 -28 21.375 -26.03125 C 22.195312 -24.070312 22.894531 -23.09375 23.46875 -23.09375 C 23.71875 -23.09375 24.160156 -23.851562 24.796875 -25.375 C 25.429688 -26.894531 26.066406 -28.539062 26.703125 -30.3125 C 28.097656 -33.988281 29.015625 -36.207031 29.453125 -36.96875 C 30.023438 -31.832031 30.375 -23.785156 30.5 -12.828125 C 30.5 -11.367188 30.53125 -9.289062 30.59375 -6.59375 C 30.65625 -3.90625 30.71875 -1.707031 30.78125 0 L 36.765625 -0.09375 L 40.1875 -0.09375 C 40.882812 -0.09375 41.929688 -0.03125 43.328125 0.09375 Z M 43.609375 -30.21875 "/></g></g></g><g fill="#178ca4" fill-opacity="1"><g transform="translate(201.465289, 220.83643)"><g><path d="M 44.5625 2.65625 C 42.03125 3.101562 40.003906 3.328125 38.484375 3.328125 C 35.566406 3.328125 32.71875 3.007812 29.9375 2.375 C 29.675781 1.613281 29.453125 1.140625 29.265625 0.953125 C 29.078125 0.765625 28.851562 0.648438 28.59375 0.609375 C 28.34375 0.578125 28.15625 0.53125 28.03125 0.46875 C 27.519531 -1.113281 26.820312 -3.675781 25.9375 -7.21875 C 25.425781 -9.3125 25 -10.832031 24.65625 -11.78125 C 24.3125 -12.726562 23.945312 -13.203125 23.5625 -13.203125 C 23.050781 -13.203125 22.625 -13.1875 22.28125 -13.15625 C 21.9375 -13.125 21.476562 -13.109375 20.90625 -13.109375 C 20.457031 -11.910156 20.015625 -9.976562 19.578125 -7.3125 C 19.066406 -4.84375 18.617188 -2.878906 18.234375 -1.421875 C 17.859375 0.0351562 17.320312 1.425781 16.625 2.75 C 16.4375 2.75 16.164062 2.78125 15.8125 2.84375 C 15.46875 2.914062 15.039062 2.953125 14.53125 2.953125 C 13.84375 2.878906 12.390625 2.84375 10.171875 2.84375 L 6.078125 2.75 L 1.046875 2.65625 L 1.328125 0.765625 L -0.859375 0.765625 L 0.46875 -6.265625 C 2.25 -16.523438 4.179688 -26.644531 6.265625 -36.625 C 8.359375 -46.601562 10.988281 -56.847656 14.15625 -67.359375 C 15.300781 -67.492188 15.96875 -67.5625 16.15625 -67.5625 C 16.40625 -67.5625 17.226562 -67.523438 18.625 -67.453125 C 20.019531 -67.390625 22.929688 -67.582031 27.359375 -68.03125 C 27.617188 -66.957031 27.78125 -66.257812 27.84375 -65.9375 L 29.265625 -66.125 C 29.835938 -62.894531 31.832031 -54.15625 35.25 -39.90625 C 36.519531 -34.707031 37.1875 -31.953125 37.25 -31.640625 Z M 26.609375 -66.984375 C 23.816406 -66.734375 21.0625 -66.609375 18.34375 -66.609375 L 16.34375 -66.609375 C 15.582031 -66.609375 15.109375 -66.578125 14.921875 -66.515625 C 11.878906 -56.316406 9.359375 -46.398438 7.359375 -36.765625 C 5.367188 -27.140625 3.390625 -16.878906 1.421875 -5.984375 C 1.234375 -4.785156 1.039062 -3.660156 0.84375 -2.609375 C 0.65625 -1.566406 0.5 -0.757812 0.375 -0.1875 L 0.5625 -0.09375 L 2.84375 -0.09375 L 10.359375 0 C 10.992188 0.0625 11.753906 0.09375 12.640625 0.09375 C 13.335938 0.09375 13.75 0.0625 13.875 0 L 14.15625 -0.09375 C 14.726562 -1.039062 15.171875 -2.179688 15.484375 -3.515625 C 15.804688 -4.847656 16.15625 -6.625 16.53125 -8.84375 C 17.164062 -12.382812 17.769531 -14.757812 18.34375 -15.96875 C 19.039062 -15.96875 19.609375 -15.984375 20.046875 -16.015625 C 20.492188 -16.046875 20.84375 -16.0625 21.09375 -16.0625 L 22.328125 -16.0625 L 24.234375 -15.875 C 24.734375 -14.726562 25.253906 -13.140625 25.796875 -11.109375 C 26.335938 -9.085938 26.671875 -7.820312 26.796875 -7.3125 C 27.429688 -4.332031 28.0625 -2.019531 28.6875 -0.375 L 28.796875 -0.375 C 31.265625 0.1875 33.859375 0.46875 36.578125 0.46875 C 38.160156 0.46875 39.804688 0.3125 41.515625 0 L 41.515625 -0.09375 L 34.390625 -33.34375 Z M 17.671875 -27.171875 C 18.429688 -32.804688 18.78125 -35.375 18.71875 -34.875 C 19.226562 -39.113281 19.65625 -42.195312 20 -44.125 C 20.34375 -46.0625 20.707031 -47.03125 21.09375 -47.03125 C 21.539062 -47.03125 22.03125 -45.539062 22.5625 -42.5625 C 23.101562 -39.582031 23.816406 -34.453125 24.703125 -27.171875 L 19.953125 -27.078125 Z M 22.328125 -38.953125 L 20.8125 -28.125 L 23.5625 -28.125 Z M 22.328125 -38.953125 "/></g></g></g><g fill="#178ca4" fill-opacity="1"><g transform="translate(242.69797, 220.83643)"><g><path d="M 32.015625 0.953125 L 30.96875 0.953125 L 26.796875 -8.171875 C 25.460938 -10.890625 24.175781 -13.625 22.9375 -16.375 C 21.707031 -19.132812 20.710938 -21.5625 19.953125 -23.65625 L 19.953125 -13.203125 C 19.953125 -5.472656 20.015625 -0.1875 20.140625 2.65625 C 18.804688 3.101562 17.097656 3.328125 15.015625 3.328125 C 13.867188 3.328125 12.867188 3.296875 12.015625 3.234375 C 11.160156 3.171875 10.445312 3.109375 9.875 3.046875 C 8.289062 2.847656 6.644531 2.75 4.9375 2.75 L 4.9375 0.859375 L 3.046875 0.859375 L 3.046875 -6.75 C 3.046875 -10.738281 2.976562 -16.535156 2.84375 -24.140625 L 2.75 -41.046875 C 2.75 -50.992188 3.066406 -59.734375 3.703125 -67.265625 C 5.222656 -67.648438 6.9375 -67.84375 8.84375 -67.84375 C 10.164062 -67.84375 11.9375 -67.664062 14.15625 -67.3125 C 16.375 -66.96875 17.546875 -66.539062 17.671875 -66.03125 C 17.859375 -65.332031 18.207031 -64.875 18.71875 -64.65625 C 19.226562 -64.4375 19.515625 -64.265625 19.578125 -64.140625 C 20.648438 -61.472656 21.882812 -58.617188 23.28125 -55.578125 C 24.675781 -52.535156 26.703125 -48.226562 29.359375 -42.65625 L 29.359375 -44.65625 C 29.359375 -46.363281 29.296875 -48.675781 29.171875 -51.59375 L 29.078125 -58.4375 C 29.015625 -59.257812 29.046875 -60.554688 29.171875 -62.328125 L 29.265625 -65.65625 L 29.265625 -67.75 C 31.484375 -68.1875 34.082031 -68.40625 37.0625 -68.40625 C 39.34375 -68.40625 41.75 -68.15625 44.28125 -67.65625 L 44.28125 -66.03125 L 46.171875 -65.75 L 46.171875 -34.390625 L 46.265625 -18.140625 L 46.171875 -12.734375 L 46.171875 -3.796875 L 46.265625 0 L 46.171875 2.65625 C 45.984375 2.71875 45.539062 2.84375 44.84375 3.03125 C 44.144531 3.226562 43.257812 3.328125 42.1875 3.328125 C 40.664062 3.328125 39.050781 3.234375 37.34375 3.046875 C 35.3125 2.910156 33.820312 2.84375 32.875 2.84375 Z M 43.421875 -1.90625 L 43.328125 -9.5 L 43.421875 -20.046875 L 43.421875 -28.21875 C 43.421875 -31.832031 43.390625 -34.523438 43.328125 -36.296875 L 43.328125 -66.890625 C 41.554688 -67.273438 39.46875 -67.46875 37.0625 -67.46875 C 34.71875 -67.46875 32.4375 -67.273438 30.21875 -66.890625 C 30.09375 -62.710938 30.03125 -59.894531 30.03125 -58.4375 L 30.125 -51.875 C 30.25 -48.832031 30.3125 -46.425781 30.3125 -44.65625 C 30.3125 -43.519531 30.25 -42.394531 30.125 -41.28125 C 30 -40.175781 29.835938 -39.5625 29.640625 -39.4375 C 29.515625 -39.4375 28.40625 -41.539062 26.3125 -45.75 C 24.226562 -49.957031 22.675781 -53.140625 21.65625 -55.296875 C 21.15625 -56.503906 20.648438 -57.613281 20.140625 -58.625 C 19.640625 -59.632812 19.257812 -60.394531 19 -60.90625 L 17.953125 -63.09375 L 16.71875 -65.9375 C 16.71875 -66.195312 15.703125 -66.421875 13.671875 -66.609375 C 11.648438 -66.796875 10.039062 -66.890625 8.84375 -66.890625 C 7.0625 -66.890625 5.632812 -66.765625 4.5625 -66.515625 C 3.988281 -59.609375 3.703125 -51.117188 3.703125 -41.046875 L 3.796875 -24.03125 C 3.921875 -16.5625 3.984375 -10.800781 3.984375 -6.75 L 3.984375 -0.09375 C 5.441406 -0.09375 6.929688 0 8.453125 0.1875 C 8.960938 0.25 9.597656 0.3125 10.359375 0.375 C 11.117188 0.4375 12.035156 0.46875 13.109375 0.46875 C 14.691406 0.46875 16.085938 0.3125 17.296875 0 C 17.234375 -0.695312 17.203125 -1.898438 17.203125 -3.609375 L 17.203125 -7.890625 C 17.203125 -13.585938 17.265625 -19.03125 17.390625 -24.21875 C 17.515625 -29.414062 17.671875 -32.015625 17.859375 -32.015625 C 18.046875 -32.015625 18.457031 -31.066406 19.09375 -29.171875 L 20.046875 -26.3125 C 21.253906 -22.957031 23.722656 -17.195312 27.453125 -9.03125 L 31.546875 0 C 32.941406 0 34.398438 0.09375 35.921875 0.28125 C 37.941406 0.40625 39.394531 0.46875 40.28125 0.46875 C 41.425781 0.46875 42.472656 0.3125 43.421875 0 Z M 43.421875 -1.90625 "/></g></g></g><g fill="#178ca4" fill-opacity="1"><g transform="translate(290.011045, 220.83643)"><g><path d="M 22.046875 -65.84375 L 23.9375 -65.84375 L 23.9375 -64.515625 C 23.9375 -59.515625 23.90625 -55.113281 23.84375 -51.3125 C 23.78125 -47.507812 23.71875 -44.34375 23.65625 -41.8125 C 23.40625 -31.550781 23.28125 -23.757812 23.28125 -18.4375 C 23.28125 -11.53125 23.46875 -4.78125 23.84375 1.8125 C 22.832031 2.820312 20.519531 3.328125 16.90625 3.328125 L 12.640625 3.234375 C 11.691406 3.171875 10.359375 3.140625 8.640625 3.140625 C 7.253906 3.140625 5.894531 3.296875 4.5625 3.609375 L 4.65625 1.328125 C 3.582031 1.453125 2.914062 1.578125 2.65625 1.703125 C 3.101562 -4.816406 3.328125 -10.769531 3.328125 -16.15625 C 3.328125 -19.757812 3.296875 -22.9375 3.234375 -25.6875 C 3.171875 -28.445312 3.109375 -30.71875 3.046875 -32.5 C 2.785156 -39.71875 2.65625 -45.195312 2.65625 -48.9375 C 2.65625 -55.144531 2.972656 -61.507812 3.609375 -68.03125 C 4.492188 -68.15625 5.066406 -68.21875 5.328125 -68.21875 C 7.097656 -68.21875 8.929688 -68.15625 10.828125 -68.03125 C 12.285156 -67.84375 14.1875 -67.75 16.53125 -67.75 L 22.046875 -67.75 Z M 16.625 -66.796875 C 15.101562 -66.796875 12.632812 -66.890625 9.21875 -67.078125 C 7.3125 -67.203125 5.851562 -67.265625 4.84375 -67.265625 L 4.46875 -67.265625 L 4.46875 -67.078125 C 3.894531 -61.953125 3.609375 -55.9375 3.609375 -49.03125 C 3.609375 -45.351562 3.640625 -42.148438 3.703125 -39.421875 C 3.765625 -36.703125 3.828125 -34.425781 3.890625 -32.59375 C 4.148438 -25.113281 4.28125 -19.441406 4.28125 -15.578125 C 4.28125 -10.253906 4.085938 -4.9375 3.703125 0.375 C 4.585938 0.25 5.316406 0.1875 5.890625 0.1875 C 6.648438 0.1875 8.046875 0.25 10.078125 0.375 C 12.359375 0.5 14.128906 0.5625 15.390625 0.5625 C 18.429688 0.5625 20.300781 0.21875 21 -0.46875 C 20.613281 -7.3125 20.421875 -14.21875 20.421875 -21.1875 C 20.421875 -26.382812 20.550781 -33.988281 20.8125 -44 C 20.875 -46.53125 20.9375 -49.660156 21 -53.390625 C 21.0625 -57.128906 21.09375 -61.472656 21.09375 -66.421875 L 21.09375 -66.796875 Z M 16.625 -66.796875 "/></g></g></g><g fill="#178ca4" fill-opacity="1"><g transform="translate(314.712654, 220.83643)"><g><path d="M 44.5625 2.65625 C 42.03125 3.101562 40.003906 3.328125 38.484375 3.328125 C 35.566406 3.328125 32.71875 3.007812 29.9375 2.375 C 29.675781 1.613281 29.453125 1.140625 29.265625 0.953125 C 29.078125 0.765625 28.851562 0.648438 28.59375 0.609375 C 28.34375 0.578125 28.15625 0.53125 28.03125 0.46875 C 27.519531 -1.113281 26.820312 -3.675781 25.9375 -7.21875 C 25.425781 -9.3125 25 -10.832031 24.65625 -11.78125 C 24.3125 -12.726562 23.945312 -13.203125 23.5625 -13.203125 C 23.050781 -13.203125 22.625 -13.1875 22.28125 -13.15625 C 21.9375 -13.125 21.476562 -13.109375 20.90625 -13.109375 C 20.457031 -11.910156 20.015625 -9.976562 19.578125 -7.3125 C 19.066406 -4.84375 18.617188 -2.878906 18.234375 -1.421875 C 17.859375 0.0351562 17.320312 1.425781 16.625 2.75 C 16.4375 2.75 16.164062 2.78125 15.8125 2.84375 C 15.46875 2.914062 15.039062 2.953125 14.53125 2.953125 C 13.84375 2.878906 12.390625 2.84375 10.171875 2.84375 L 6.078125 2.75 L 1.046875 2.65625 L 1.328125 0.765625 L -0.859375 0.765625 L 0.46875 -6.265625 C 2.25 -16.523438 4.179688 -26.644531 6.265625 -36.625 C 8.359375 -46.601562 10.988281 -56.847656 14.15625 -67.359375 C 15.300781 -67.492188 15.96875 -67.5625 16.15625 -67.5625 C 16.40625 -67.5625 17.226562 -67.523438 18.625 -67.453125 C 20.019531 -67.390625 22.929688 -67.582031 27.359375 -68.03125 C 27.617188 -66.957031 27.78125 -66.257812 27.84375 -65.9375 L 29.265625 -66.125 C 29.835938 -62.894531 31.832031 -54.15625 35.25 -39.90625 C 36.519531 -34.707031 37.1875 -31.953125 37.25 -31.640625 Z M 26.609375 -66.984375 C 23.816406 -66.734375 21.0625 -66.609375 18.34375 -66.609375 L 16.34375 -66.609375 C 15.582031 -66.609375 15.109375 -66.578125 14.921875 -66.515625 C 11.878906 -56.316406 9.359375 -46.398438 7.359375 -36.765625 C 5.367188 -27.140625 3.390625 -16.878906 1.421875 -5.984375 C 1.234375 -4.785156 1.039062 -3.660156 0.84375 -2.609375 C 0.65625 -1.566406 0.5 -0.757812 0.375 -0.1875 L 0.5625 -0.09375 L 2.84375 -0.09375 L 10.359375 0 C 10.992188 0.0625 11.753906 0.09375 12.640625 0.09375 C 13.335938 0.09375 13.75 0.0625 13.875 0 L 14.15625 -0.09375 C 14.726562 -1.039062 15.171875 -2.179688 15.484375 -3.515625 C 15.804688 -4.847656 16.15625 -6.625 16.53125 -8.84375 C 17.164062 -12.382812 17.769531 -14.757812 18.34375 -15.96875 C 19.039062 -15.96875 19.609375 -15.984375 20.046875 -16.015625 C 20.492188 -16.046875 20.84375 -16.0625 21.09375 -16.0625 L 22.328125 -16.0625 L 24.234375 -15.875 C 24.734375 -14.726562 25.253906 -13.140625 25.796875 -11.109375 C 26.335938 -9.085938 26.671875 -7.820312 26.796875 -7.3125 C 27.429688 -4.332031 28.0625 -2.019531 28.6875 -0.375 L 28.796875 -0.375 C 31.265625 0.1875 33.859375 0.46875 36.578125 0.46875 C 38.160156 0.46875 39.804688 0.3125 41.515625 0 L 41.515625 -0.09375 L 34.390625 -33.34375 Z M 17.671875 -27.171875 C 18.429688 -32.804688 18.78125 -35.375 18.71875 -34.875 C 19.226562 -39.113281 19.65625 -42.195312 20 -44.125 C 20.34375 -46.0625 20.707031 -47.03125 21.09375 -47.03125 C 21.539062 -47.03125 22.03125 -45.539062 22.5625 -42.5625 C 23.101562 -39.582031 23.816406 -34.453125 24.703125 -27.171875 L 19.953125 -27.078125 Z M 22.328125 -38.953125 L 20.8125 -28.125 L 23.5625 -28.125 Z M 22.328125 -38.953125 "/></g></g></g><g clip-path="url(#c5b489c094)"><g clip-path="url(#f594d43ba5)"><g clip-path="url(#6d3b958a3d)"><path fill="#178ca4" d="M 120.21875 164.6875 C 120.546875 166.917969 119.097656 171.464844 119.097656 171.464844 C 118.960938 171.507812 118.832031 171.53125 118.703125 171.546875 L 118.941406 168.429688 C 118.941406 168.429688 118.128906 170.289062 117.820312 171.421875 C 116.335938 171.4375 115.773438 170.492188 115.773438 170.492188 C 116.558594 166.789062 117.597656 164.898438 118.242188 164.003906 C 118.082031 163.679688 118.039062 163.308594 118.148438 162.941406 C 118.324219 162.335938 118.863281 161.925781 119.449219 161.878906 L 121.464844 155.300781 L 111.484375 156.449219 C 110.730469 156.539062 110.125 155.835938 110.332031 155.101562 L 111.0625 152.480469 C 111.152344 152.144531 111.074219 151.789062 110.859375 151.523438 C 100.09375 138.144531 88.6875 135.246094 81.027344 135.171875 C 72.679688 135.09375 66.960938 138.183594 66.722656 138.3125 L 66.710938 138.320312 C 66.460938 138.457031 66.285156 138.683594 66.199219 138.945312 L 65.3125 141.855469 C 65.085938 142.59375 64.191406 142.859375 63.597656 142.359375 L 53.832031 134.140625 C 53.113281 133.535156 53.46875 132.367188 54.398438 132.261719 L 93.140625 127.878906 C 93.433594 127.851562 93.71875 127.933594 93.941406 128.117188 L 124.296875 153.167969 C 125.027344 153.769531 124.679688 154.949219 123.738281 155.0625 L 122.410156 155.210938 L 120.296875 162.085938 C 120.878906 162.414062 121.175781 163.109375 120.980469 163.773438 C 120.867188 164.1875 120.574219 164.507812 120.21875 164.6875 Z M 67.710938 140.136719 C 67.644531 140.164062 67.589844 140.222656 67.5625 140.296875 L 62.527344 156 C 62.464844 156.1875 62.632812 156.375 62.828125 156.324219 C 65.851562 155.589844 84.132812 152.09375 103.625 169.496094 C 103.765625 169.617188 103.980469 169.5625 104.035156 169.390625 L 109.3125 152.9375 C 109.339844 152.863281 109.328125 152.773438 109.273438 152.710938 C 108.027344 151.046875 91.796875 130.226562 67.710938 140.136719 Z M 67.710938 140.136719 " fill-opacity="1" fill-rule="nonzero"/></g></g></g></svg>